<?xml version="1.0" encoding="UTF-8"?>
<svg id="Layer_2" data-name="Layer 2" xmlns="http://www.w3.org/2000/svg" viewBox="0 0 612.69 611.46">
  <defs>
    <style>
      .cls-1, .cls-2 {
        fill: #fff;
      }

      .cls-2 {
        stroke: #fff;
        stroke-miterlimit: 10;
        strokeWidth: 3px;
      }
    </style>
  </defs>
  <g id="Layer_1-2" data-name="Layer 1">
    <path class="cls-1" d="m76.97,139.42c3.59,10.84,14.11,15.14,15.79,15.79,85.45,7.81,112.85,29.68,120.01,50.53C241.07,288.17,18.51,545.71,4.34,572.08-.25,580.62,0,589.37,0,589.37c.05,1.57.72,9.86,4.34,14.29,8.81,10.8,26.59,11.87,44.21-6.32C221.2,407.86,412.79,199.42,585.43,9.93c.19-.44,1.51-3.49,0-6.32-1.57-2.94-5.55-4.43-9.47-3.16C413.84,36.25,251.72,72.04,89.61,107.83c-11.31,7.44-16.27,20.6-12.63,31.58Z"/>
    <circle class="cls-2" cx="494.19" cy="423.54" r="117"/>
  </g>
</svg>